<?xml version="1.0" encoding="iso-8859-1"?>
<!-- Generator: Adobe Illustrator 19.1.0, SVG Export Plug-In . SVG Version: 6.00 Build 0)  -->
<svg version="1.1" id="Layer_1" xmlns="http://www.w3.org/2000/svg" xmlns:xlink="http://www.w3.org/1999/xlink" x="0px" y="0px"
	 viewBox="0 0 1920 1080" style="enable-background:new 0 0 1920 1080;" xml:space="preserve">
<path d="M1.28,1.325c639.899,0,1279.798,0,1919.848,0c0,319.818,0,639.682,0,959.75c-639.848,0-1279.848,0-1919.848,0
	C1.28,641.299,1.28,321.335,1.28,1.325z M1478.247,213.736c-6.937,4.143-12.772,9.609-18.387,15.336
	c-0.283,0.289-0.531,0.692-0.606,1.079c-0.065,0.334,0.026,0.857,0.254,1.046c0.262,0.217,0.845,0.333,1.125,0.185
	c0.732-0.386,1.433-0.877,2.043-1.439c2.021-1.862,3.914-3.872,6.01-5.643c3.188-2.694,6.504-5.237,9.766-7.844
	c5.601-3.083,11.266-6.008,17.383-7.991c20.137-6.531,40.275-5.887,60.47-0.267c2.458,0.684,4.298,1.717,5.105,4.23
	c0.324,1.009,0.685,2.041,2.1,2.326c2.163-2.856,3.492-6.19,4.63-9.61c2.98-8.958,4.314-18.233,5.126-27.589
	c0.163-1.879-0.068-3.85-0.455-5.708c-3.605-17.323-7.887-34.469-13.813-51.166c-0.901-2.539-1.518-5.225-3.52-7.98
	c-0.297,4.08-0.345,7.626-0.849,11.106c-1.425,9.85-5.176,18.857-10.402,27.276c-4.973,8.011-10.964,15.21-17.529,21.955
	c-9.396,9.653-19.714,18.25-30.299,26.544C1490.361,204.315,1484.299,209.019,1478.247,213.736z M1660.31,656.963
	c-6.753,0.665-13.505,1.329-19.906,1.959c-1.11,1.512-0.909,2.824-0.91,4.082c-0.015,15.971-0.012,31.942-0.009,47.913
	c0,0.851,0.028,1.703,0.05,2.554c0.042,1.604,0.997,2.257,2.465,2.209c4.041-0.132,8.134,0.029,12.108-0.574
	c4.153-0.63,8.506-0.168,12.458-2.026c2.539-0.179,5.114-0.148,7.611-0.573c13.841-2.355,27.697-4.64,41.484-7.288
	c24.65-4.734,49.18-10.038,73.425-16.577c4.308-1.162,8.543-2.596,12.833-3.828c1.861-0.534,2.903-1.592,3.081-3.557
	c0.076-0.837,0.442-1.643,0.607-2.477c2.645-13.355,5.391-26.692,7.838-40.084c0.632-3.459,1.717-6.977,1.261-11.112
	C1763.147,638.345,1711.991,649.054,1660.31,656.963z M1461.332,890.02c1.05,3.23,2.072,6.469,3.169,9.682
	c0.308,0.902,0.557,2.018,2.099,1.915c0.589-1.553,1.197-3.137,1.791-4.728c26.493-70.94,48.157-143.357,66.282-216.855
	c6.684-27.101,12.798-54.331,18.459-81.665c5.315-25.667,10.178-51.419,14.491-77.269c2.981-17.864,5.617-35.789,8.179-53.72
	c2.11-14.767,4.044-29.563,5.765-44.38c1.622-13.972,3.059-27.972,4.219-41.99c1.231-14.867,2.087-29.765,3.022-44.655
	c1.699-27.049,1.606-54.116,0.612-81.185c-0.084-2.287,0.208-4.712-1.123-6.826c-0.338-5.532-0.597-11.07-1.031-16.594
	c-0.937-11.934-3.113-23.653-6.393-35.165c-0.695-2.44-1.389-4.898-3.359-6.84c-0.476,2.174-1.005,4.2-1.355,6.256
	c-1.449,8.495-4.13,16.522-9.095,23.64c-1.087,1.559-1.329,3.083-0.969,4.808c0.305,1.46,0.659,2.913,1.058,4.351
	c3.162,11.395,4.344,23.059,4.12,34.818c-0.403,21.085-4.653,41.456-12.234,61.132c-0.536,1.39-1.069,2.788-1.723,4.124
	c-0.795,1.624-1.823,2.069-3.671,1.707c-0.832-0.163-1.655-0.401-2.459-0.673c-20.18-6.824-40.103-14.32-59.097-24.02
	c-14.637-7.475-28.944-15.532-40.124-28.016c-0.397-0.443-1.016-0.934-1.557-0.964c-4.625-0.258-9.3-1.036-12.754,3.525
	c-2.961,3.91-6.507,7.378-10.394,10.373c-2.342,1.805-2.863,3.878-2.735,6.631c0.485,10.44,0.929,20.885,1.161,31.333
	c0.834,37.533,1.692,75.066,2.316,112.603c0.589,35.405,1.056,70.814,1.284,106.224c0.315,48.85,0.428,97.702,0.488,146.553
	c0.039,31.784-0.055,63.571-1.636,95.328c-0.131,2.64,0.493,5.021,1.326,7.471c5.489,16.132,10.838,32.311,16.351,48.435
	C1450.912,860.29,1456.155,875.144,1461.332,890.02z M1277.848,217.278c-1.376,4.351-1.369,8.804-1.142,13.264
	c0.768,15.133,2.518,30.167,4.926,45.115c4.781,29.672,11.126,59.032,18.144,88.245c11.595,48.262,24.746,96.108,38.558,143.778
	c21.101,72.829,43.832,145.154,67.315,217.243c5.458,16.758,10.351,33.726,17.365,50.592c0.143-2.21,0.267-3.82,0.349-5.432
	c0.864-17.044,0.924-34.106,0.938-51.162c0.057-65.9,0.321-131.801-0.869-197.697c-0.651-36.033-0.973-72.073-1.439-108.109
	c-0.152-11.729-0.151-23.461-0.465-35.186c-0.673-25.148-1.498-50.292-2.302-75.436c-0.036-1.135,0.544-2.489-0.925-3.58
	c-0.825,0.533-1.7,1.073-2.549,1.652c-7.751,5.286-15.802,10.072-24.066,14.509c-13.32,7.15-27.099,13.353-40.782,19.753
	c-0.577,0.27-1.141,0.582-1.742,0.779c-1.091,0.357-2.112,0.233-2.829-0.775c-0.741-1.041-1.482-2.088-2.138-3.184
	c-8.776-14.662-16.055-29.995-21.098-46.369c-2.896-9.404-4.825-18.978-5.72-28.759c-0.218-2.38-1.241-3.731-3.364-4.844
	c-13.71-7.182-24.531-17.547-33.051-30.407C1280.039,219.873,1279.41,218.202,1277.848,217.278z M1317.316,246.356
	c0.667-2.521,0.685-5.277,0.977-7.985c0.972-9.007,3.753-17.425,8.041-25.397c1.255-2.333,2.704-3.526,5.527-3.114
	c6.318,0.922,12.684,1.511,19.006,2.408c26.245,3.723,51.725,10.299,76.201,20.594c1.093,0.46,2.208,1.477,3.69,0.492
	c-0.217-1.586-1.518-2.433-2.565-3.411c-4.995-4.671-10.484-8.721-16.186-12.464c-8.722-5.725-17.522-11.333-26.315-16.949
	c-11.847-7.567-23.686-15.142-34.969-23.548c-8.728-6.502-17.089-13.419-24.665-21.257c-8.825-9.129-16.153-19.227-20.412-31.33
	c-0.163-0.464-0.181-1.174-1.163-0.993c-0.417,1.592-0.893,3.223-1.271,4.877c-2.229,9.75-4.228,19.558-6.698,29.246
	c-3.576,14.027-7.763,27.871-13.703,41.131c-1.283,2.863-4.04,5.596-3.437,8.652c0.585,2.965,2.858,5.639,4.556,8.336
	c7.607,12.082,17.164,22.228,29.621,29.434C1314.596,245.682,1315.526,246.672,1317.316,246.356z"/>
<path style="fill:#FDFDFD;" d="M1461.332,890.02c-5.177-14.876-10.42-29.73-15.515-44.634
	c-5.512-16.124-10.861-32.303-16.351-48.435c-0.834-2.45-1.458-4.831-1.326-7.471c1.58-31.757,1.675-63.544,1.636-95.328
	c-0.06-48.851-0.173-97.703-0.488-146.553c-0.228-35.409-0.695-70.818-1.284-106.224c-0.624-37.537-1.483-75.07-2.316-112.603
	c-0.232-10.448-0.676-20.893-1.161-31.333c-0.128-2.753,0.394-4.826,2.735-6.631c3.887-2.996,7.433-6.463,10.394-10.373
	c3.454-4.561,8.129-3.783,12.754-3.525c0.54,0.03,1.16,0.521,1.557,0.964c11.18,12.484,25.487,20.542,40.124,28.016
	c18.994,9.7,38.918,17.195,59.097,24.02c0.804,0.272,1.627,0.51,2.459,0.673c1.848,0.362,2.876-0.083,3.671-1.707
	c0.654-1.336,1.187-2.734,1.723-4.124c7.58-19.676,11.831-40.047,12.234-61.132c0.225-11.759-0.958-23.423-4.12-34.818
	c-0.399-1.438-0.754-2.89-1.058-4.351c-0.359-1.725-0.118-3.25,0.969-4.808c4.965-7.117,7.646-15.145,9.095-23.64
	c0.351-2.056,0.879-4.082,1.355-6.256c1.969,1.942,2.663,4.4,3.359,6.84c3.279,11.512,5.456,23.23,6.393,35.165
	c0.434,5.524,0.693,11.062,1.031,16.594c-1.112,0.971-0.96,2.294-0.953,3.554c0.114,20.88-0.221,41.75-1.409,62.601
	c-0.496,8.711-0.962,17.425-1.446,26.137c-0.024,0.425-0.089,0.848-0.127,1.272c-0.715,7.832-1.462,15.662-2.134,23.498
	c-0.582,6.783-0.758,13.619-1.728,20.343c-0.61,4.231-0.745,8.478-1.286,12.697c-1.137,8.854-2.263,17.709-3.342,26.571
	c-1.028,8.443-1.854,16.912-3.014,25.336c-1.45,10.527-3.117,21.024-4.752,31.525c-2.224,14.284-4.266,28.601-6.821,42.826
	c-3.42,19.041-7.297,38-10.904,57.009c-5.593,29.472-12.264,58.706-19.255,87.87c-5.852,24.417-12.268,48.683-18.976,72.882
	c-6.483,23.39-13.471,46.622-20.995,69.686c-5.281,16.188-11.061,32.218-16.858,48.232c-3.115,8.604-6.725,17.03-10.135,25.526
	C1463.531,887.48,1463.002,889.151,1461.332,890.02z M1453.848,790.032c6.156,0.006,10.99-4.669,11.101-10.736
	c0.106-5.806-5.016-10.925-11.065-10.814c-5.664,0.103-11.435,4.217-11.464,10.456
	C1442.391,785.128,1447.364,790.026,1453.848,790.032z M1471.665,565.82c0.354-5.725-4.634-10.954-10.71-11.227
	c-5.901-0.265-11.515,4.517-11.885,10.125c-0.381,5.759,4.438,10.982,10.465,11.489
	C1465.176,576.681,1470.86,573.134,1471.665,565.82z M1453.884,359.746c6.084,0.153,11.122-4.452,11.452-10.468
	c0.317-5.778-4.638-10.925-10.735-11.151c-6.278-0.233-11.945,4.887-11.896,10.749
	C1442.754,354.651,1447.837,359.594,1453.884,359.746z"/>
<path style="fill:#FDFDFD;" d="M1277.848,217.278c1.562,0.924,2.19,2.595,3.113,3.988c8.521,12.86,19.341,23.225,33.051,30.407
	c2.123,1.112,3.146,2.464,3.364,4.844c0.895,9.78,2.824,19.354,5.72,28.759c5.043,16.374,12.322,31.707,21.098,46.369
	c0.656,1.096,1.396,2.143,2.138,3.184c0.717,1.008,1.738,1.132,2.829,0.775c0.601-0.197,1.166-0.509,1.742-0.779
	c13.683-6.4,27.462-12.602,40.782-19.753c8.264-4.436,16.315-9.223,24.066-14.509c0.849-0.579,1.724-1.118,2.549-1.652
	c1.469,1.092,0.889,2.445,0.925,3.58c0.803,25.144,1.628,50.288,2.302,75.436c0.314,11.724,0.314,23.457,0.465,35.186
	c0.466,36.037,0.788,72.076,1.439,108.109c1.19,65.896,0.926,131.797,0.869,197.697c-0.015,17.056-0.074,34.118-0.938,51.162
	c-0.082,1.612-0.205,3.222-0.349,5.432c-7.014-16.866-11.906-33.834-17.365-50.592c-23.482-72.089-46.213-144.413-67.315-217.243
	c-13.812-47.67-26.964-95.516-38.558-143.778c-7.018-29.212-13.363-58.572-18.144-88.245c-2.408-14.948-4.158-29.982-4.926-45.115
	C1276.48,226.082,1276.473,221.629,1277.848,217.278z"/>
<path style="fill:#FDFDFD;" d="M1660.31,656.963c51.681-7.908,102.837-18.617,154.396-29.378c0.456,4.134-0.629,7.652-1.261,11.112
	c-2.447,13.391-5.193,26.728-7.838,40.084c-0.165,0.834-0.531,1.64-0.607,2.477c-0.178,1.965-1.22,3.023-3.081,3.557
	c-4.291,1.231-8.525,2.666-12.833,3.828c-24.245,6.539-48.775,11.843-73.425,16.577c-13.786,2.647-27.643,4.933-41.484,7.288
	c-2.497,0.425-5.072,0.394-7.611,0.573c-0.257-1.456-0.444-2.929-0.783-4.366C1661.767,691.694,1659.489,674.493,1660.31,656.963z"
	/>
<path style="fill:#FDFDFD;" d="M1317.316,246.356c-1.791,0.315-2.72-0.674-3.764-1.278c-12.457-7.206-22.014-17.352-29.621-29.434
	c-1.698-2.697-3.971-5.371-4.556-8.336c-0.603-3.056,2.154-5.789,3.437-8.652c5.94-13.259,10.127-27.103,13.703-41.131
	c2.47-9.688,4.469-19.496,6.698-29.246c0.378-1.653,0.853-3.285,1.271-4.877c0.982-0.181,1,0.529,1.163,0.993
	c4.259,12.103,11.587,22.201,20.412,31.33c7.576,7.837,15.938,14.755,24.665,21.257c11.283,8.406,23.122,15.98,34.969,23.548
	c8.793,5.616,17.593,11.224,26.315,16.949c5.702,3.742,11.191,7.793,16.186,12.464c1.046,0.979,2.348,1.825,2.565,3.411
	c-1.482,0.985-2.597-0.033-3.69-0.492c-24.476-10.295-49.955-16.871-76.201-20.594c-6.322-0.897-12.688-1.486-19.006-2.408
	c-2.824-0.412-4.273,0.781-5.527,3.114c-4.287,7.972-7.069,16.39-8.041,25.397C1318.001,241.08,1317.983,243.836,1317.316,246.356z"
	/>
<path style="fill:#A5A6A9;" d="M1461.332,890.02c1.67-0.868,2.199-2.54,2.828-4.109c3.41-8.497,7.021-16.922,10.135-25.526
	c5.797-16.014,11.577-32.044,16.858-48.232c7.525-23.064,14.512-46.296,20.995-69.686c6.707-24.199,13.123-48.465,18.976-72.882
	c6.99-29.164,13.662-58.398,19.255-87.87c3.607-19.008,7.484-37.967,10.904-57.009c2.555-14.225,4.597-28.542,6.821-42.826
	c1.635-10.501,3.302-20.998,4.752-31.525c1.16-8.424,1.986-16.893,3.014-25.336c1.079-8.861,2.205-17.717,3.342-26.571
	c0.542-4.219,0.676-8.465,1.286-12.697c0.97-6.724,1.146-13.56,1.728-20.343c0.672-7.836,1.419-15.666,2.134-23.498
	c0.039-0.424,0.103-0.847,0.127-1.272c0.484-8.712,0.949-17.425,1.446-26.137c1.188-20.851,1.523-41.721,1.409-62.601
	c-0.007-1.26-0.158-2.583,0.953-3.554c1.33,2.114,1.038,4.539,1.123,6.826c0.994,27.069,1.087,54.136-0.612,81.185
	c-0.935,14.89-1.792,29.789-3.022,44.655c-1.16,14.017-2.597,28.018-4.219,41.99c-1.72,14.817-3.654,29.613-5.765,44.38
	c-2.562,17.93-5.198,35.855-8.179,53.72c-4.313,25.85-9.176,51.602-14.491,77.269c-5.661,27.335-11.775,54.564-18.459,81.665
	c-18.125,73.497-39.788,145.914-66.282,216.855c-0.594,1.59-1.202,3.175-1.791,4.728c-1.542,0.103-1.791-1.014-2.099-1.915
	C1463.405,896.489,1462.382,893.249,1461.332,890.02z"/>
<path style="fill:#FDFDFD;" d="M1478.247,213.736c6.052-4.717,12.114-9.421,18.153-14.153c10.584-8.293,20.903-16.89,30.299-26.544
	c6.565-6.745,12.556-13.944,17.529-21.955c5.226-8.419,8.977-17.426,10.402-27.276c0.503-3.48,0.552-7.027,0.849-11.106
	c2.002,2.755,2.619,5.441,3.52,7.98c5.925,16.697,10.207,33.843,13.813,51.166c0.387,1.858,0.618,3.83,0.455,5.708
	c-0.812,9.356-2.146,18.631-5.126,27.589c-1.138,3.42-2.467,6.754-4.63,9.61c-1.415-0.285-1.776-1.317-2.1-2.326
	c-0.807-2.513-2.647-3.546-5.105-4.23c-20.195-5.62-40.333-6.264-60.47,0.267c-6.117,1.984-11.782,4.908-17.383,7.991
	C1478.925,215.509,1478.711,214.613,1478.247,213.736z"/>
<path style="fill:#A5A6A9;" d="M1660.31,656.963c-0.822,17.53,1.457,34.731,5.473,51.751c0.339,1.437,0.526,2.91,0.783,4.366
	c-3.952,1.858-8.305,1.396-12.458,2.026c-3.974,0.603-8.066,0.442-12.108,0.574c-1.468,0.048-2.423-0.606-2.465-2.209
	c-0.022-0.851-0.05-1.702-0.05-2.554c-0.003-15.971-0.005-31.942,0.009-47.913c0.001-1.258-0.199-2.57,0.91-4.082
	C1646.805,658.292,1653.557,657.627,1660.31,656.963z"/>
<path style="fill:#A5A6A9;" d="M1478.247,213.736c0.464,0.877,0.677,1.773,0.205,2.72c-3.262,2.607-6.578,5.15-9.766,7.844
	c-2.096,1.771-3.988,3.781-6.01,5.643c-0.61,0.562-1.311,1.053-2.043,1.439c-0.281,0.148-0.863,0.032-1.125-0.185
	c-0.229-0.19-0.319-0.713-0.254-1.046c0.075-0.387,0.323-0.791,0.606-1.079C1465.475,223.345,1471.31,217.879,1478.247,213.736z"/>
<path d="M1453.848,790.032c-6.484-0.006-11.457-4.903-11.429-11.094c0.029-6.239,5.8-10.352,11.464-10.456
	c6.049-0.111,11.172,5.009,11.065,10.814C1464.838,785.362,1460.004,790.037,1453.848,790.032z"/>
<path d="M1471.665,565.82c-0.805,7.314-6.489,10.861-12.13,10.386c-6.026-0.507-10.846-5.729-10.465-11.489
	c0.371-5.608,5.985-10.39,11.885-10.125C1467.031,554.866,1472.019,560.095,1471.665,565.82z"/>
<path d="M1453.884,359.746c-6.047-0.152-11.13-5.095-11.179-10.87c-0.049-5.862,5.617-10.982,11.896-10.749
	c6.098,0.226,11.053,5.373,10.735,11.151C1465.006,355.294,1459.968,359.899,1453.884,359.746z"/>
</svg>
